<svg xmlns="http://www.w3.org/2000/svg" width="32" height="32" viewBox="0 0 32 32" fill="none">
  <g clip-path="url(#clip0_245_3047)">
    <path d="M31.9847 16.2994C31.9847 14.9884 31.8758 14.0317 31.6402 13.0396H16.3187V18.9569H25.3121C25.1308 20.4274 24.1517 22.642 21.9759 24.1301L21.9454 24.3282L26.7897 27.9952L27.1254 28.0279C30.2077 25.2463 31.9847 21.1538 31.9847 16.2994Z" fill="#4285F4"/>
    <path d="M16.3187 31.8901C20.7247 31.8901 24.4236 30.4727 27.1254 28.0279L21.9759 24.1301C20.5979 25.0691 18.7484 25.7246 16.3187 25.7246C12.0034 25.7246 8.34073 22.9432 7.0351 19.0986L6.84373 19.1145L1.80648 22.9236L1.7406 23.1025C4.4241 28.3112 9.93623 31.8901 16.3187 31.8901Z" fill="#34A853"/>
    <path d="M7.03512 19.0987C6.69062 18.1066 6.49125 17.0435 6.49125 15.9451C6.49125 14.8466 6.69062 13.7837 7.017 12.7915L7.00787 12.5803L1.9075 8.70996L1.74062 8.78752C0.634625 10.949 0 13.3762 0 15.9451C0 18.5141 0.634625 20.9412 1.74062 23.1026L7.03512 19.0987Z" fill="#FBBC05"/>
    <path d="M16.3187 6.16537C19.383 6.16537 21.45 7.45869 22.6286 8.53948L27.2341 4.14571C24.4056 1.57679 20.7247 0 16.3187 0C9.93623 0 4.4241 3.57875 1.7406 8.78742L7.01698 12.7915C8.34073 8.94693 12.0034 6.16537 16.3187 6.16537Z" fill="#EB4335"/>
  </g>
  <defs>
    <clipPath id="clip0_245_3047">
      <rect width="32" height="32" fill="white"/>
    </clipPath>
  </defs>
</svg>